<?xml version="1.0" encoding="UTF-8" standalone="no"?>
<svg
  xmlns="http://www.w3.org/2000/svg"
   width="450"
   height="447.96201"
   viewBox="0 0 450 447.96201">
  <g
     transform="matrix(1.1217985,0,0,1.1217985,-349.36083,-350.37977)">
    <path d="m 481.33805,356.36097 c -62.22434,11.65368 -113.52036,65.43592 -123.41312,127.85122 -10.23168,56.72318 14.28034,117.58976 60.58073,151.80892 47.67889,37.22939 117.01224,41.74154 169.84637,12.85671 41.57914,-22.00387 71.97536,-64.16105 80.02604,-110.4515 -1.20049,-10.26979 -11.41345,-2.44841 -14.78399,2.14107 -37.59316,32.99435 -95.74352,38.35619 -138.49842,12.84907 -31.69997,-18.24604 -55.11842,-51.60762 -59.59854,-87.8554 -0.84798,-21.32751 -1.75655,-43.69583 8.01536,-63.50505 5.23359,-14.22116 15.11731,-25.79111 23.14389,-38.3308 1.85358,-3.71402 -1.31072,-7.79104 -5.31832,-7.36424 z" />
  </g>
</svg>
