<?xml version="1.0" encoding="UTF-8" standalone="no"?>
<svg
   width="450"
   height="450"
   viewBox="0 0 450 450"
   version="1.1"
   id="svg841"
   inkscape:version="1.4 (e7c3feb1, 2024-10-09)"
   sodipodi:docname="icon_light.svg"
   inkscape:export-filename="icons/icon-1024x1024.png"
   inkscape:export-xdpi="25.4"
   inkscape:export-ydpi="25.4"
   xmlns:inkscape="http://www.inkscape.org/namespaces/inkscape"
   xmlns:sodipodi="http://sodipodi.sourceforge.net/DTD/sodipodi-0.dtd"
   xmlns="http://www.w3.org/2000/svg"
   xmlns:svg="http://www.w3.org/2000/svg"
   xmlns:rdf="http://www.w3.org/1999/02/22-rdf-syntax-ns#"
   xmlns:cc="http://creativecommons.org/ns#"
   xmlns:dc="http://purl.org/dc/elements/1.1/">
  <defs
     id="defs835" />
  <sodipodi:namedview
     id="base"
     pagecolor="#ffffff"
     bordercolor="#666666"
     borderopacity="1.0"
     inkscape:pageopacity="0"
     inkscape:pageshadow="2"
     inkscape:zoom="0.81558968"
     inkscape:cx="58.853124"
     inkscape:cy="83.988312"
     inkscape:document-units="mm"
     inkscape:current-layer="layer4"
     inkscape:document-rotation="0"
     showgrid="false"
     inkscape:window-width="1920"
     inkscape:window-height="958"
     inkscape:window-x="0"
     inkscape:window-y="25"
     inkscape:window-maximized="1"
     inkscape:showpageshadow="2"
     inkscape:pagecheckerboard="false"
     inkscape:deskcolor="#d1d1d1">
    <inkscape:grid
       type="xygrid"
       id="grid1410"
       originx="-31.000002"
       originy="-32.018959"
       spacingy="1"
       spacingx="1"
       units="mm"
       visible="false" />
  </sodipodi:namedview>
  <metadata
     id="metadata838">
    <rdf:RDF>
      <cc:Work
         rdf:about="">
        <dc:format>image/svg+xml</dc:format>
        <dc:type
           rdf:resource="http://purl.org/dc/dcmitype/StillImage" />
      </cc:Work>
    </rdf:RDF>
  </metadata>
  <g
     inkscape:groupmode="layer"
     id="layer2"
     inkscape:label="circle-fill"
     style="display:none;fill:#ffffff;fill-opacity:1"
     transform="matrix(0.4408294,0,0,0.4408294,-0.70465638,-1.7236154)">
    <circle
       style="display:inline;fill:#ffffff;fill-opacity:1;stroke:#000000;stroke-width:0.623233;stroke-opacity:1"
       id="path1406"
       cx="512"
       cy="512"
       r="505.65942" />
  </g>
  <g
     inkscape:groupmode="layer"
     id="layer4"
     inkscape:label="Layer 2"
     style="display:inline"
     transform="matrix(1.1217985,0,0,1.1217985,-349.36083,-350.37977)">
    <path
       d="m 544.55887,354.61205 c -43.9475,11.45785 -76.38491,51.41824 -76.38491,98.95566 0,56.47486 45.78102,102.25588 102.25588,102.25588 47.53741,0 87.49841,-32.43741 98.95506,-76.3849 2.16209,10.51467 3.30387,21.40529 3.30387,32.5613 0,88.74587 -71.94291,160.68878 -160.68878,160.68878 -88.74587,0 -160.68878,-71.94291 -160.68878,-160.68878 0,-88.74587 71.94291,-160.68878 160.68878,-160.68878 11.15601,0 22.04663,1.13571 32.5613,3.2978 z"
       fill="none"
       stroke="#333333"
       stroke-width="32.1379"
       stroke-linejoin="round"
       id="path245"
       style="display:none" />
    <path
       style="fill:#333333;stroke-width:1.35337"
       d="m 481.33805,357.26929 c -62.22434,11.65368 -113.52036,65.43592 -123.41312,127.85122 -10.23168,56.72318 14.28034,117.58976 60.58073,151.80892 47.67889,37.22939 117.01224,41.74154 169.84637,12.85671 41.57914,-22.00387 71.97536,-64.16105 80.02604,-110.4515 -1.20049,-10.26979 -11.41345,-2.44841 -14.78399,2.14107 -37.59316,32.99435 -95.74352,38.35619 -138.49842,12.84907 -31.69997,-18.24604 -55.11842,-51.60762 -59.59854,-87.8554 -0.84798,-21.32751 -1.75655,-43.69583 8.01536,-63.50505 5.23359,-14.22116 15.11731,-25.79111 23.14389,-38.3308 1.85358,-3.71402 -1.31072,-7.79104 -5.31832,-7.36424 z"
       id="path32" />
  </g>
</svg>
