<?xml version="1.0" encoding="UTF-8" standalone="no"?>
<svg
   width="450"
   height="450"
   viewBox="0 0 450 450"
   version="1.1"
   id="svg1"
   sodipodi:docname="icon_tran.svg"
   inkscape:version="1.4 (e7c3feb1, 2024-10-09)"
   xmlns:inkscape="http://www.inkscape.org/namespaces/inkscape"
   xmlns:sodipodi="http://sodipodi.sourceforge.net/DTD/sodipodi-0.dtd"
   xmlns="http://www.w3.org/2000/svg"
   xmlns:svg="http://www.w3.org/2000/svg">
  <defs
     id="defs1" />
  <sodipodi:namedview
     id="namedview1"
     pagecolor="#ffffff"
     bordercolor="#000000"
     borderopacity="0.25"
     inkscape:showpageshadow="2"
     inkscape:pageopacity="0.0"
     inkscape:pagecheckerboard="0"
     inkscape:deskcolor="#d1d1d1"
     inkscape:zoom="1.8059567"
     inkscape:cx="224.81159"
     inkscape:cy="223.981"
     inkscape:window-width="1200"
     inkscape:window-height="958"
     inkscape:window-x="0"
     inkscape:window-y="25"
     inkscape:window-maximized="0"
     inkscape:current-layer="svg1" />
  <g
     transform="matrix(1.1217985,0,0,1.1217985,-349.36083,-349.36082)"
     id="g1">
    <path
       d="m 481.33805,356.36097 c -62.22434,11.65368 -113.52036,65.43592 -123.41312,127.85122 -10.23168,56.72318 14.28034,117.58976 60.58073,151.80892 47.67889,37.22939 117.01224,41.74154 169.84637,12.85671 41.57914,-22.00387 71.97536,-64.16105 80.02604,-110.4515 -1.20049,-10.26979 -11.41345,-2.44841 -14.78399,2.14107 -37.59316,32.99435 -95.74352,38.35619 -138.49842,12.84907 -31.69997,-18.24604 -55.11842,-51.60762 -59.59854,-87.8554 -0.84798,-21.32751 -1.75655,-43.69583 8.01536,-63.50505 5.23359,-14.22116 15.11731,-25.79111 23.14389,-38.3308 1.85358,-3.71402 -1.31072,-7.79104 -5.31832,-7.36424 z"
       id="path1" />
  </g>
</svg>
