<?xml version="1.0" encoding="UTF-8" standalone="no"?>
<svg
   width="90"
   height="27.056"
   viewBox="0 0 90.000002 27.056"
   version="1.1"
   id="svg1"
   sodipodi:docname="logo.svg"
   inkscape:version="1.3 (0e150ed6c4, 2023-07-21)"
   xmlns:inkscape="http://www.inkscape.org/namespaces/inkscape"
   xmlns:sodipodi="http://sodipodi.sourceforge.net/DTD/sodipodi-0.dtd"
   xmlns="http://www.w3.org/2000/svg"
   xmlns:svg="http://www.w3.org/2000/svg">
  <defs
     id="defs1" />
  <sodipodi:namedview
     id="namedview1"
     pagecolor="#ffffff"
     bordercolor="#000000"
     borderopacity="0.25"
     inkscape:showpageshadow="2"
     inkscape:pageopacity="0.0"
     inkscape:pagecheckerboard="0"
     inkscape:deskcolor="#d1d1d1"
     inkscape:zoom="10.375686"
     inkscape:cx="-12.336533"
     inkscape:cy="18.697559"
     inkscape:window-width="3840"
     inkscape:window-height="2036"
     inkscape:window-x="-12"
     inkscape:window-y="-12"
     inkscape:window-maximized="1"
     inkscape:current-layer="svg1" />
  <g
     id="svgGroup"
     stroke-linecap="round"
     fill-rule="evenodd"
     font-size="12px">
    <path
       d="M 13.75759,22.967845 H 11.287835 V 3.7586391 h 3.649749 L 20.261278,15.915322 25.502647,3.7586391 h 3.732074 V 22.967845 H 26.627758 V 7.0790874 L 21.496156,18.632053 H 18.916634 L 13.75759,7.0790874 Z m 55.432279,0 H 66.720114 V 8.698149 h 2.387429 v 2.38743 q 0.768369,-1.1525525 1.962084,-1.9346416 1.193714,-0.782089 2.840218,-0.782089 a 6.3729789,6.3729789 0 0 1 1.39014,0.1422636 q 1.398083,0.3119691 2.218445,1.3121476 a 5.049999,5.049999 0 0 1 0.989346,2.0249104 q 0.179093,0.725039 0.20148,1.572122 a 9.265192,9.265192 0 0 1 0.0029,0.244809 v 9.302744 h -2.469765 v -9.028327 a 5.2868644,5.2868644 0 0 0 -0.09388,-1.026898 q -0.1206,-0.607328 -0.395017,-1.086836 a 3.0092015,3.0092015 0 0 0 -0.238309,-0.356021 2.3542109,2.3542109 0 0 0 -1.72233,-0.92002 3.3096161,3.3096161 0 0 0 -0.294637,-0.013 3.6006428,3.6006428 0 0 0 -1.879758,0.538724 4.7618609,4.7618609 0 0 0 -0.507672,0.353132 q -1.125111,0.891856 -1.92092,2.099292 z m -31.651138,-0.03827 a 7.4677592,7.4677592 0 0 0 2.37082,0.367575 q 2.030688,0 3.636028,-0.933019 1.605341,-0.933018 2.53836,-2.620684 a 7.2048964,7.2048964 0 0 0 0.727927,-1.959917 9.3807361,9.3807361 0 0 0 0.205091,-2.005412 9.4789485,9.4789485 0 0 0 -0.132876,-1.621228 7.07852,7.07852 0 0 0 -0.813863,-2.316659 q -0.94674,-1.660225 -2.55208,-2.5658018 a 6.8185458,6.8185458 0 0 0 -1.273874,-0.556056 7.6114671,7.6114671 0 0 0 -2.334713,-0.3495208 8.5964805,8.5964805 0 0 0 -0.43329,0.010832 7.1810654,7.1810654 0 0 0 -3.189017,0.8947446 q -1.619062,0.905577 -2.55208,2.579523 a 7.1413471,7.1413471 0 0 0 -0.754648,2.082682 9.606047,9.606047 0 0 0 -0.178371,1.896367 9.5554965,9.5554965 0 0 0 0.07294,1.194437 7.5327527,7.5327527 0 0 0 0.846361,2.688567 q 0.919297,1.687666 2.538359,2.634405 a 6.7391092,6.7391092 0 0 0 1.278929,0.579165 z m 16.41015,0 a 7.4677592,7.4677592 0 0 0 2.37082,0.367575 q 2.030687,0 3.636028,-0.933019 1.605341,-0.933018 2.538359,-2.620684 a 7.2048964,7.2048964 0 0 0 0.727928,-1.959917 9.3807361,9.3807361 0 0 0 0.205091,-2.005412 9.4789485,9.4789485 0 0 0 -0.132876,-1.621228 7.07852,7.07852 0 0 0 -0.813863,-2.316659 q -0.94674,-1.660229 -2.552081,-2.5658058 a 6.8185458,6.8185458 0 0 0 -1.273873,-0.556056 7.6114671,7.6114671 0 0 0 -2.334713,-0.3495208 8.5964805,8.5964805 0 0 0 -0.43329,0.010832 7.1810654,7.1810654 0 0 0 -3.189017,0.8947446 q -1.619062,0.905577 -2.552081,2.579523 a 7.1413471,7.1413471 0 0 0 -0.754647,2.082682 9.606047,9.606047 0 0 0 -0.178371,1.896367 9.5554965,9.5554965 0 0 0 0.07294,1.194437 7.5327527,7.5327527 0 0 0 0.846361,2.688567 q 0.919297,1.687666 2.538359,2.634405 a 6.7391092,6.7391092 0 0 0 1.278929,0.579165 z m -14.03933,-1.827767 a 5.1431564,5.1431564 0 0 0 1.434191,-0.189926 3.8418411,3.8418411 0 0 0 1.941141,-1.278206 5.1597659,5.1597659 0 0 0 1.04784,-2.219891 7.438151,7.438151 0 0 0 0.159596,-1.580788 5.8660292,5.8660292 0 0 0 -0.3358,-1.999635 5.4919552,5.4919552 0 0 0 -0.267918,-0.621049 5.2680885,5.2680885 0 0 0 -1.144609,-1.528071 4.9864498,4.9864498 0 0 0 -0.488174,-0.39285 q -1.029064,-0.727206 -2.346267,-0.727206 a 5.2825315,5.2825315 0 0 0 -1.434191,0.184149 3.8519512,3.8519512 0 0 0 -1.941141,1.242821 4.9062911,4.9062911 0 0 0 -1.008122,2.023466 q -0.180538,0.729372 -0.197869,1.585121 a 9.0203829,9.0203829 0 0 0 -0.0014,0.178371 q 0,1.426969 0.603718,2.648126 a 5.3338042,5.3338042 0 0 0 0.968404,1.382918 4.8369646,4.8369646 0 0 0 0.664379,0.565444 q 1.029064,0.727206 2.346267,0.727206 z m 16.41015,0 a 5.1431564,5.1431564 0 0 0 1.434191,-0.189926 3.8418411,3.8418411 0 0 0 1.941141,-1.278206 5.1597659,5.1597659 0 0 0 1.04784,-2.219891 7.438151,7.438151 0 0 0 0.159595,-1.580788 5.8660292,5.8660292 0 0 0 -0.3358,-1.999635 5.4919552,5.4919552 0 0 0 -0.267917,-0.621049 5.2680885,5.2680885 0 0 0 -1.144609,-1.528071 4.9864498,4.9864498 0 0 0 -0.488174,-0.39285 q -1.029064,-0.727206 -2.346267,-0.727206 a 5.2825315,5.2825315 0 0 0 -1.434191,0.184149 3.8519512,3.8519512 0 0 0 -1.941141,1.242821 4.9062911,4.9062911 0 0 0 -1.008122,2.023466 q -0.180538,0.729372 -0.197869,1.585121 a 9.0203829,9.0203829 0 0 0 -0.0014,0.178371 q 0,1.426969 0.603718,2.648126 a 5.3338042,5.3338042 0 0 0 0.968404,1.382918 4.8369646,4.8369646 0 0 0 0.664379,0.565444 q 1.029064,0.727206 2.346267,0.727206 z"
       id="path1"
       inkscape:label="path1"
       style="stroke-width:0.722151" />
  </g>
</svg>
